<svg width="32" height="32" viewBox="0 0 32 32" fill="none" xmlns="http://www.w3.org/2000/svg">
<rect width="32" height="32" rx="16" fill="#E4E8DF"/>
<path d="M18.2068 21.3327C18.3237 21.3327 18.4406 21.2896 18.5329 21.1973C18.7113 21.0189 18.7113 20.7236 18.5329 20.5452L14.5215 16.5338C14.2262 16.2385 14.2262 15.7586 14.5215 15.4633L18.5329 11.452C18.7113 11.2736 18.7113 10.9782 18.5329 10.7998C18.3545 10.6214 18.0591 10.6214 17.8807 10.7998L13.8694 14.8112C13.5556 15.1249 13.3772 15.5495 13.3772 15.9986C13.3772 16.4477 13.5495 16.8722 13.8694 17.186L17.8807 21.1973C17.973 21.2835 18.0899 21.3327 18.2068 21.3327Z" fill="#69735D"/>
</svg>