<svg xmlns="http://www.w3.org/2000/svg" width="74" height="78" fill="none">
  <path stroke="#253017" stroke-linecap="round" stroke-linejoin="round" stroke-width="1.5" d="M1.696 49.388c-.8 5.227 2.767 8.853 7.132 10.66 16.736 6.938 40.024 6.938 56.76 0 4.365-1.807 7.931-5.437 7.133-10.66-.488-3.214-2.914-5.888-4.71-8.502-2.352-3.465-2.584-7.241-2.588-11.261C65.427 14.092 52.797 1.5 37.208 1.5S8.989 14.092 8.989 29.625c0 4.02-.232 7.8-2.587 11.261-1.793 2.614-4.215 5.288-4.706 8.502Z"/>
  <path stroke="#253017" stroke-linecap="round" stroke-linejoin="round" stroke-width="1.5" d="M22.208 65.25c1.718 6.469 7.785 11.25 15 11.25 7.219 0 13.279-4.781 15-11.25"/>
</svg>