<svg width="18" height="20" viewBox="0 0 18 20" fill="none" xmlns="http://www.w3.org/2000/svg">
<path d="M14.5 6C15.163 6 15.7989 5.73661 16.2678 5.26777C16.7366 4.79893 17 4.16304 17 3.5C17 2.83696 16.7366 2.20107 16.2678 1.73223C15.7989 1.26339 15.163 1 14.5 1C13.837 1 13.2011 1.26339 12.7322 1.73223C12.2634 2.20107 12 2.83696 12 3.5C12 4.16304 12.2634 4.79893 12.7322 5.26777C13.2011 5.73661 13.837 6 14.5 6ZM3.5 12.5C4.16304 12.5 4.79893 12.2366 5.26777 11.7678C5.73661 11.2989 6 10.663 6 10C6 9.33696 5.73661 8.70107 5.26777 8.23223C4.79893 7.76339 4.16304 7.5 3.5 7.5C2.83696 7.5 2.20107 7.76339 1.73223 8.23223C1.26339 8.70107 1 9.33696 1 10C1 10.663 1.26339 11.2989 1.73223 11.7678C2.20107 12.2366 2.83696 12.5 3.5 12.5Z" stroke="#253017" stroke-width="1.5" stroke-linejoin="round"/>
<path d="M12 4.78711L5.66999 8.62211M5.66949 11.2816L12.3395 15.2231" stroke="#253017" stroke-width="1.5" stroke-linecap="round" stroke-linejoin="round"/>
<path d="M14.5 14C15.163 14 15.7989 14.2634 16.2678 14.7322C16.7366 15.2011 17 15.837 17 16.5C17 17.163 16.7366 17.7989 16.2678 18.2678C15.7989 18.7366 15.163 19 14.5 19C13.837 19 13.2011 18.7366 12.7322 18.2678C12.2634 17.7989 12 17.163 12 16.5C12 15.837 12.2634 15.2011 12.7322 14.7322C13.2011 14.2634 13.837 14 14.5 14Z" stroke="#253017" stroke-width="1.5" stroke-linejoin="round"/>
</svg>

