<svg width="78" height="78" viewBox="0 0 78 78" fill="none" xmlns="http://www.w3.org/2000/svg">
<path d="M63.9249 67.0208C61.013 63.1666 57.2462 60.0409 52.921 57.8899C48.5959 55.7389 43.8304 54.6212 38.9999 54.625C34.1693 54.6212 29.4039 55.7389 25.0787 57.8899C20.7535 60.0409 16.9867 63.1666 14.0749 67.0208M63.9249 67.0208C69.6061 61.9675 73.617 55.3065 75.4256 47.9212C77.2342 40.5359 76.7551 32.7754 74.0518 25.6687C71.3485 18.5619 66.5487 12.4449 60.289 8.12873C54.0293 3.81257 46.6055 1.50122 39.002 1.50122C31.3985 1.50122 23.9746 3.81257 17.7149 8.12873C11.4552 12.4449 6.65541 18.5619 3.9521 25.6687C1.24879 32.7754 0.769674 40.5359 2.57829 47.9212C4.3869 55.3065 8.39363 61.9675 14.0749 67.0208M63.9249 67.0208C57.0658 73.1369 48.1897 76.5115 38.9999 76.5C29.8086 76.5125 20.935 73.1378 14.0749 67.0208M51.4999 29.625C51.4999 32.9402 50.1829 36.1196 47.8387 38.4638C45.4945 40.808 42.3151 42.125 38.9999 42.125C35.6847 42.125 32.5052 40.808 30.161 38.4638C27.8168 36.1196 26.4999 32.9402 26.4999 29.625C26.4999 26.3098 27.8168 23.1304 30.161 20.7862C32.5052 18.442 35.6847 17.125 38.9999 17.125C42.3151 17.125 45.4945 18.442 47.8387 20.7862C50.1829 23.1304 51.4999 26.3098 51.4999 29.625Z" stroke="#253017" stroke-width="1.5" stroke-linecap="round" stroke-linejoin="round"/>
</svg>

